<svg width="570px" height="122px" viewBox="0 0 570 122">
    <g stroke="none" stroke-width="1" fill="none" fill-rule="evenodd">
        <g fill="#FFFFFF">
            <g transform="translate(5.000000, 0.731431)">
                <path d="M87.839412,42.0644447 C87.839412,59.2926433 81.0039443,70.4136337 67.3450168,75.4384001 L94.618843,113.889047 L65.030504,113.889047 L41.1438917,79.5944172 L24.4930087,79.5944172 L24.4930087,113.889047 L0.456298237,113.889047 L0.456298237,6.37981572 L41.2939898,6.37981572 C58.0449382,6.37981572 69.9847421,9.20275187 77.1284112,14.8416342 C84.2710797,20.479518 87.839412,29.5544539 87.839412,42.0644447 L87.839412,42.0644447 Z M58.8664752,54.8310661 C61.8454222,52.1649042 63.3373974,47.933995 63.3373974,42.1393369 C63.3373974,36.3506702 61.7943889,32.3763915 58.7093725,30.2234907 C55.6303601,28.07059 50.2368349,26.9951382 42.5297975,26.9951382 L24.4930087,26.9951382 L24.4930087,58.8293103 L42.0654941,58.8293103 C50.2868676,58.8293103 55.8805236,57.4962294 58.8664752,54.8310661 L58.8664752,54.8310661 Z" id="Fill-1"></path>
                <path d="M190.173298,6.37981572 L190.173298,27.75804 L136.53524,27.75804 L136.53524,49.9051573 L184.779772,49.9051573 L184.779772,70.3637055 L136.53524,70.3637055 L136.53524,92.6675972 L191.866404,92.6675972 L191.866404,113.889047 L112.497529,113.889047 L112.497529,6.37981572 L190.173298,6.37981572" id="Fill-2"></path>
                <path d="M238.492879,27.8389235 C236.179367,29.7361923 235.025613,32.2455798 235.025613,35.3740761 C235.025613,38.5035709 236.436535,40.9879943 239.264384,42.8343364 C242.086228,44.6796799 248.608491,46.8575446 258.837176,49.3669322 C269.058857,51.8833096 276.992042,55.6508859 282.64874,60.6756523 C288.299433,65.7014173 291.121277,73.0288688 291.121277,82.6669939 C291.121277,92.3041205 287.502912,100.120868 280.259178,106.122228 C273.016444,112.117597 263.484214,115.121273 251.669492,115.121273 C234.611342,115.121273 219.253304,108.813354 205.587372,96.203507 L219.917739,78.6677512 C231.53233,88.8191374 242.268347,93.893832 252.132794,93.893832 C256.54768,93.893832 260.015947,92.9491918 262.536594,91.0469303 C265.052238,89.1506601 266.312062,86.5903459 266.312062,83.3619934 C266.312062,80.1326423 264.976189,77.5663368 262.305443,75.6700666 C259.627693,73.7737964 254.340237,71.8525622 246.426064,69.9003726 C233.889871,66.927652 224.721879,63.0602195 218.921087,58.2910851 C213.113291,53.5229492 210.209393,46.0377248 210.209393,35.837409 C210.209393,25.6360947 213.884795,17.7634281 221.228595,12.2254005 C228.572395,6.69336434 237.746391,3.92035632 248.740577,3.92035632 C255.933278,3.92035632 263.12698,5.15358099 270.319681,7.61304039 C277.506379,10.0724998 283.777477,13.5584814 289.12097,18.0699867 L276.94201,35.6057425 C267.591898,28.5279316 257.933586,24.9920219 247.969073,24.9920219 C243.961454,24.9920219 240.800387,25.9436519 238.492879,27.8389235" id="Fill-3"></path>
                <path d="M356.316889,27.1449226 L356.316889,113.889047 L332.273174,113.889047 L332.273174,27.1449226 L301.757229,27.1449226 L301.757229,6.37981572 L386.832834,6.37981572 L386.832834,27.1449226 L356.316889,27.1449226" id="Fill-4"></path>
                <path d="M553.942057,5.1505853 C552.579166,5.1505853 551.473444,6.25299828 551.473444,7.61403895 L551.473444,35.2322802 L544.066603,35.2322802 L544.066603,7.61403895 C544.066603,6.25299828 542.96088,5.1505853 541.596988,5.1505853 C540.234098,5.1505853 539.129376,6.25299828 539.129376,7.61403895 L539.129376,35.2322802 L531.721534,35.2322802 L531.721534,7.61403895 C531.721534,6.25299828 530.616812,5.1505853 529.25292,5.1505853 C527.889029,5.1505853 526.783306,6.25299828 526.783306,7.61403895 L526.783306,35.4978978 C526.783306,35.5967555 526.877368,35.6546721 526.889376,35.7505341 C527.107518,41.7129507 530.785922,46.7666754 536.049363,48.8966092 L536.049363,105.860605 C536.049363,108.905222 538.545994,111.397634 541.596988,111.397634 C544.648983,111.397634 547.145615,108.905222 547.145615,105.860605 L547.145615,48.8966092 C552.409055,46.767674 556.087459,41.7129507 556.306603,35.7505341 C556.31761,35.6546721 556.411671,35.5967555 556.411671,35.4978978 L556.411671,7.61403895 C556.411671,6.25299828 555.305949,5.1505853 553.942057,5.1505853" id="Fill-5"></path>
                <path d="M454.733214,33.6835098 C440.499911,33.6835098 428.920343,45.2398734 428.920343,59.4434262 C428.920343,73.6459804 440.499911,85.2013455 454.733214,85.2013455 C468.965516,85.2013455 480.546086,73.6459804 480.546086,59.4434262 C480.546086,45.2398734 468.965516,33.6835098 454.733214,33.6835098" id="Fill-6"></path>
                <path d="M454.733214,0.36147962 C422.033842,0.36147962 395.527517,26.8124013 395.527517,59.4434262 C395.527517,92.072454 422.033842,118.524374 454.733214,118.524374 C487.431586,118.524374 513.938911,92.072454 513.938911,59.4434262 C513.938911,26.8124013 487.431586,0.36147962 454.733214,0.36147962 L454.733214,0.36147962 Z M454.733214,90.4517871 C437.571998,90.4517871 423.659905,76.5687728 423.659905,59.4434262 C423.659905,42.3180796 437.571998,28.4340668 454.733214,28.4340668 C471.894431,28.4340668 485.806524,42.3180796 485.806524,59.4434262 C485.806524,76.5687728 471.894431,90.4517871 454.733214,90.4517871 L454.733214,90.4517871 Z" id="Fill-7"></path>
            </g>
        </g>
    </g>
</svg>